<?xml version="1.0" encoding="utf-8"?>
<!-- Generator: Adobe Illustrator 15.0.0, SVG Export Plug-In . SVG Version: 6.00 Build 0)  -->
<!DOCTYPE svg PUBLIC "-//W3C//DTD SVG 1.1//EN" "http://www.w3.org/Graphics/SVG/1.1/DTD/svg11.dtd">
<svg version="1.1" id="Layer_1" xmlns="http://www.w3.org/2000/svg" xmlns:xlink="http://www.w3.org/1999/xlink" x="0px" y="0px"
	 width="100px" height="100px" viewBox="0 0 100 100" enable-background="new 0 0 100 100" xml:space="preserve">
<path fill="#FF9733" d="M52.468,2.926c-26.624,0-48.206,21.582-48.206,48.204c0,26.622,21.582,48.204,48.206,48.204
	c26.613,0,48.199-21.582,48.199-48.204C100.667,24.508,79.081,2.926,52.468,2.926z"/>
<path fill="#FFFFFF" d="M52.472,91.666c-22.357,0-40.542-18.184-40.542-40.539c0-22.341,18.185-40.533,40.542-40.533
	c22.348,0,40.527,18.191,40.527,40.533C92.999,73.482,74.819,91.666,52.472,91.666z"/>
<path fill="#2831F6" d="M52.475,16.873c-18.888,0-34.269,15.368-34.269,34.26c0,18.889,15.381,34.255,34.269,34.255
	c18.877,0,34.248-15.366,34.248-34.255C86.725,32.241,71.352,16.873,52.475,16.873z M49.788,70.806
	c-9.747-1.698-1.86-13.063-1.86-13.063c8.123-13.378-2.399-10.2-2.399-10.2c9.258-8.607,11.854-1.066,11.854-1.066
	C59.32,48.771,52.051,64.4,52.051,64.4c-1.625,3.736,5.877,3.005,5.877,3.005C54.695,72.13,49.788,70.806,49.788,70.806z
	 M53.859,40.702c-2.633,0-4.769-2.138-4.769-4.765c0-2.635,2.136-4.769,4.769-4.769s4.764,2.134,4.764,4.769
	C58.623,38.564,56.492,40.702,53.859,40.702z"/>
</svg>
